<?xml version="1.0" encoding="UTF-8"?>
<svg xmlns="http://www.w3.org/2000/svg" xmlns:xlink="http://www.w3.org/1999/xlink" width="375pt" height="374.999991pt" viewBox="0 0 375 374.999991" version="1.2">
<defs>
<clipPath id="clip1">
  <path d="M 53.320312 28 L 321.820312 28 L 321.820312 343 L 53.320312 343 Z M 53.320312 28 "/>
</clipPath>
<clipPath id="clip2">
  <path d="M 237.5625 51.054688 C 222.523438 45.898438 208.253906 39.128906 194.757812 30.746094 C 193.667969 30.066406 192.507812 29.550781 191.273438 29.199219 C 190.039062 28.847656 188.78125 28.667969 187.496094 28.667969 C 186.214844 28.667969 184.957031 28.847656 183.722656 29.199219 C 182.488281 29.550781 181.328125 30.066406 180.238281 30.746094 C 166.597656 39.160156 152.179688 45.929688 136.984375 51.054688 C 125.871094 55.144531 114.480469 58.195312 102.808594 60.21875 C 91.140625 62.238281 79.382812 63.191406 67.539062 63.078125 C 66.609375 63.027344 65.6875 63.070312 64.765625 63.207031 C 63.84375 63.34375 62.949219 63.570312 62.074219 63.886719 C 61.199219 64.207031 60.367188 64.609375 59.574219 65.09375 C 58.78125 65.582031 58.046875 66.140625 57.371094 66.777344 C 56.691406 67.410156 56.082031 68.109375 55.546875 68.867188 C 55.007812 69.625 54.554688 70.425781 54.179688 71.277344 C 53.808594 72.128906 53.523438 73.007812 53.328125 73.914062 C 53.132812 74.820312 53.03125 75.738281 53.019531 76.667969 L 53.019531 218.535156 C 53.023438 220.917969 53.101562 223.296875 53.257812 225.675781 C 53.417969 228.054688 53.652344 230.421875 53.964844 232.785156 C 54.277344 235.148438 54.667969 237.5 55.136719 239.835938 C 55.601562 242.171875 56.144531 244.492188 56.765625 246.792969 C 57.382812 249.09375 58.078125 251.375 58.847656 253.628906 C 59.617188 255.886719 60.460938 258.113281 61.375 260.316406 C 62.289062 262.515625 63.277344 264.6875 64.335938 266.824219 C 65.390625 268.960938 66.519531 271.058594 67.714844 273.121094 C 68.910156 275.183594 70.171875 277.207031 71.5 279.1875 C 72.828125 281.167969 74.21875 283.105469 75.675781 284.992188 C 77.128906 286.882812 78.644531 288.722656 80.222656 290.515625 C 81.796875 292.304688 83.429688 294.042969 85.121094 295.726562 C 86.8125 297.410156 88.554688 299.035156 90.351562 300.605469 C 92.148438 302.175781 93.996094 303.6875 95.890625 305.136719 C 97.785156 306.585938 99.726562 307.96875 101.714844 309.292969 C 103.703125 310.617188 105.730469 311.871094 107.800781 313.0625 L 134.289062 327.996094 C 136.292969 329.148438 138.332031 330.234375 140.40625 331.257812 C 142.480469 332.277344 144.585938 333.230469 146.722656 334.113281 C 148.859375 334.996094 151.023438 335.808594 153.210938 336.550781 C 155.402344 337.289062 157.613281 337.960938 159.847656 338.558594 C 162.082031 339.15625 164.332031 339.679688 166.601562 340.128906 C 168.867188 340.578125 171.148438 340.953125 173.441406 341.253906 C 175.734375 341.554688 178.035156 341.78125 180.34375 341.933594 C 182.648438 342.085938 184.960938 342.160156 187.273438 342.160156 C 189.585938 342.160156 191.894531 342.085938 194.203125 341.933594 C 196.511719 341.78125 198.8125 341.554688 201.105469 341.253906 C 203.398438 340.953125 205.675781 340.578125 207.945312 340.128906 C 210.214844 339.679688 212.464844 339.15625 214.699219 338.558594 C 216.933594 337.960938 219.144531 337.289062 221.332031 336.550781 C 223.523438 335.808594 225.6875 334.996094 227.824219 334.113281 C 229.960938 333.230469 232.066406 332.277344 234.140625 331.257812 C 236.214844 330.234375 238.253906 329.148438 240.253906 327.996094 L 266.746094 313.0625 C 268.816406 311.871094 270.84375 310.617188 272.832031 309.292969 C 274.816406 307.96875 276.757812 306.585938 278.65625 305.136719 C 280.550781 303.6875 282.398438 302.175781 284.195312 300.605469 C 285.992188 299.035156 287.734375 297.410156 289.425781 295.726562 C 291.113281 294.042969 292.746094 292.304688 294.324219 290.515625 C 295.898438 288.722656 297.414062 286.882812 298.871094 284.992188 C 300.324219 283.105469 301.71875 281.167969 303.046875 279.1875 C 304.375 277.207031 305.636719 275.183594 306.832031 273.121094 C 308.027344 271.058594 309.152344 268.960938 310.210938 266.824219 C 311.269531 264.6875 312.253906 262.515625 313.171875 260.316406 C 314.085938 258.113281 314.929688 255.886719 315.699219 253.628906 C 316.464844 251.375 317.160156 249.09375 317.78125 246.792969 C 318.398438 244.492188 318.941406 242.171875 319.410156 239.835938 C 319.878906 237.5 320.269531 235.148438 320.582031 232.785156 C 320.894531 230.421875 321.128906 228.054688 321.285156 225.675781 C 321.445312 223.296875 321.523438 220.917969 321.523438 218.535156 L 321.523438 76.667969 C 321.515625 75.738281 321.414062 74.820312 321.21875 73.914062 C 321.023438 73.007812 320.738281 72.128906 320.363281 71.277344 C 319.992188 70.425781 319.535156 69.625 319 68.867188 C 318.460938 68.109375 317.855469 67.410156 317.175781 66.777344 C 316.496094 66.140625 315.761719 65.582031 314.96875 65.09375 C 314.179688 64.609375 313.34375 64.207031 312.472656 63.886719 C 311.597656 63.570312 310.699219 63.34375 309.78125 63.207031 C 308.859375 63.070312 307.933594 63.027344 307.007812 63.078125 C 295.164062 63.191406 283.40625 62.238281 271.734375 60.21875 C 260.066406 58.195312 248.675781 55.144531 237.5625 51.054688 Z M 237.5625 51.054688 "/>
</clipPath>
<linearGradient id="linear0" gradientUnits="userSpaceOnUse" x1="24" y1="44.987078" x2="24" y2="3.00177" gradientTransform="matrix(7.483353,0,0,7.466665,7.672226,6.25641)">
<stop offset="0" style="stop-color:rgb(13.508606%,19.949341%,47.238159%);stop-opacity:1;"/>
<stop offset="0.015625" style="stop-color:rgb(13.491821%,19.924927%,47.120667%);stop-opacity:1;"/>
<stop offset="0.03125" style="stop-color:rgb(13.461304%,19.876099%,46.884155%);stop-opacity:1;"/>
<stop offset="0.046875" style="stop-color:rgb(13.430786%,19.828796%,46.64917%);stop-opacity:1;"/>
<stop offset="0.0625" style="stop-color:rgb(13.398743%,19.781494%,46.414185%);stop-opacity:1;"/>
<stop offset="0.078125" style="stop-color:rgb(13.368225%,19.732666%,46.177673%);stop-opacity:1;"/>
<stop offset="0.09375" style="stop-color:rgb(13.336182%,19.685364%,45.942688%);stop-opacity:1;"/>
<stop offset="0.109375" style="stop-color:rgb(13.305664%,19.638062%,45.706177%);stop-opacity:1;"/>
<stop offset="0.125" style="stop-color:rgb(13.275146%,19.589233%,45.471191%);stop-opacity:1;"/>
<stop offset="0.140625" style="stop-color:rgb(13.243103%,19.541931%,45.236206%);stop-opacity:1;"/>
<stop offset="0.15625" style="stop-color:rgb(13.212585%,19.494629%,44.999695%);stop-opacity:1;"/>
<stop offset="0.171875" style="stop-color:rgb(13.180542%,19.445801%,44.764709%);stop-opacity:1;"/>
<stop offset="0.1875" style="stop-color:rgb(13.150024%,19.398499%,44.528198%);stop-opacity:1;"/>
<stop offset="0.203125" style="stop-color:rgb(13.119507%,19.351196%,44.293213%);stop-opacity:1;"/>
<stop offset="0.21875" style="stop-color:rgb(13.087463%,19.302368%,44.058228%);stop-opacity:1;"/>
<stop offset="0.234375" style="stop-color:rgb(13.056946%,19.255066%,43.821716%);stop-opacity:1;"/>
<stop offset="0.25" style="stop-color:rgb(13.024902%,19.207764%,43.586731%);stop-opacity:1;"/>
<stop offset="0.265625" style="stop-color:rgb(12.994385%,19.160461%,43.35022%);stop-opacity:1;"/>
<stop offset="0.28125" style="stop-color:rgb(12.963867%,19.111633%,43.115234%);stop-opacity:1;"/>
<stop offset="0.296875" style="stop-color:rgb(12.931824%,19.064331%,42.880249%);stop-opacity:1;"/>
<stop offset="0.3125" style="stop-color:rgb(12.901306%,19.017029%,42.643738%);stop-opacity:1;"/>
<stop offset="0.328125" style="stop-color:rgb(12.869263%,18.968201%,42.408752%);stop-opacity:1;"/>
<stop offset="0.34375" style="stop-color:rgb(12.838745%,18.920898%,42.172241%);stop-opacity:1;"/>
<stop offset="0.359375" style="stop-color:rgb(12.808228%,18.873596%,41.937256%);stop-opacity:1;"/>
<stop offset="0.375" style="stop-color:rgb(12.776184%,18.824768%,41.702271%);stop-opacity:1;"/>
<stop offset="0.390625" style="stop-color:rgb(12.745667%,18.777466%,41.465759%);stop-opacity:1;"/>
<stop offset="0.40625" style="stop-color:rgb(12.715149%,18.730164%,41.230774%);stop-opacity:1;"/>
<stop offset="0.421875" style="stop-color:rgb(12.683105%,18.681335%,40.995789%);stop-opacity:1;"/>
<stop offset="0.4375" style="stop-color:rgb(12.652588%,18.634033%,40.759277%);stop-opacity:1;"/>
<stop offset="0.453125" style="stop-color:rgb(12.620544%,18.586731%,40.524292%);stop-opacity:1;"/>
<stop offset="0.46875" style="stop-color:rgb(12.590027%,18.537903%,40.287781%);stop-opacity:1;"/>
<stop offset="0.484375" style="stop-color:rgb(12.559509%,18.490601%,40.052795%);stop-opacity:1;"/>
<stop offset="0.5" style="stop-color:rgb(12.527466%,18.443298%,39.81781%);stop-opacity:1;"/>
<stop offset="0.515625" style="stop-color:rgb(12.457275%,18.382263%,39.562988%);stop-opacity:1;"/>
<stop offset="0.53125" style="stop-color:rgb(12.321472%,18.29834%,39.277649%);stop-opacity:1;"/>
<stop offset="0.546875" style="stop-color:rgb(12.155151%,18.205261%,38.977051%);stop-opacity:1;"/>
<stop offset="0.5625" style="stop-color:rgb(11.990356%,18.112183%,38.677979%);stop-opacity:1;"/>
<stop offset="0.578125" style="stop-color:rgb(11.825562%,18.019104%,38.37738%);stop-opacity:1;"/>
<stop offset="0.59375" style="stop-color:rgb(11.659241%,17.9245%,38.078308%);stop-opacity:1;"/>
<stop offset="0.609375" style="stop-color:rgb(11.494446%,17.831421%,37.77771%);stop-opacity:1;"/>
<stop offset="0.625" style="stop-color:rgb(11.328125%,17.738342%,37.478638%);stop-opacity:1;"/>
<stop offset="0.640625" style="stop-color:rgb(11.16333%,17.645264%,37.17804%);stop-opacity:1;"/>
<stop offset="0.65625" style="stop-color:rgb(10.997009%,17.552185%,36.878967%);stop-opacity:1;"/>
<stop offset="0.671875" style="stop-color:rgb(10.832214%,17.457581%,36.578369%);stop-opacity:1;"/>
<stop offset="0.6875" style="stop-color:rgb(10.665894%,17.364502%,36.279297%);stop-opacity:1;"/>
<stop offset="0.703125" style="stop-color:rgb(10.501099%,17.271423%,35.978699%);stop-opacity:1;"/>
<stop offset="0.71875" style="stop-color:rgb(10.336304%,17.178345%,35.679626%);stop-opacity:1;"/>
<stop offset="0.734375" style="stop-color:rgb(10.169983%,17.085266%,35.379028%);stop-opacity:1;"/>
<stop offset="0.75" style="stop-color:rgb(10.005188%,16.992188%,35.079956%);stop-opacity:1;"/>
<stop offset="0.765625" style="stop-color:rgb(9.838867%,16.897583%,34.779358%);stop-opacity:1;"/>
<stop offset="0.78125" style="stop-color:rgb(9.674072%,16.804504%,34.480286%);stop-opacity:1;"/>
<stop offset="0.796875" style="stop-color:rgb(9.507751%,16.711426%,34.179688%);stop-opacity:1;"/>
<stop offset="0.8125" style="stop-color:rgb(9.342957%,16.618347%,33.880615%);stop-opacity:1;"/>
<stop offset="0.828125" style="stop-color:rgb(9.176636%,16.525269%,33.580017%);stop-opacity:1;"/>
<stop offset="0.84375" style="stop-color:rgb(9.011841%,16.43219%,33.280945%);stop-opacity:1;"/>
<stop offset="0.859375" style="stop-color:rgb(8.847046%,16.337585%,32.980347%);stop-opacity:1;"/>
<stop offset="0.875" style="stop-color:rgb(8.680725%,16.244507%,32.681274%);stop-opacity:1;"/>
<stop offset="0.890625" style="stop-color:rgb(8.51593%,16.151428%,32.380676%);stop-opacity:1;"/>
<stop offset="0.90625" style="stop-color:rgb(8.349609%,16.05835%,32.081604%);stop-opacity:1;"/>
<stop offset="0.921875" style="stop-color:rgb(8.184814%,15.965271%,31.781006%);stop-opacity:1;"/>
<stop offset="0.9375" style="stop-color:rgb(8.018494%,15.872192%,31.481934%);stop-opacity:1;"/>
<stop offset="0.953125" style="stop-color:rgb(7.853699%,15.777588%,31.181335%);stop-opacity:1;"/>
<stop offset="0.96875" style="stop-color:rgb(7.687378%,15.684509%,30.882263%);stop-opacity:1;"/>
<stop offset="0.984375" style="stop-color:rgb(7.522583%,15.591431%,30.581665%);stop-opacity:1;"/>
<stop offset="1" style="stop-color:rgb(7.357788%,15.498352%,30.282593%);stop-opacity:1;"/>
</linearGradient>
<clipPath id="clip3">
  <path d="M 59 28 L 321.820312 28 L 321.820312 343 L 59 343 Z M 59 28 "/>
</clipPath>
<clipPath id="clip4">
  <path d="M 307.007812 63.078125 L 300.269531 63.078125 C 289.5625 62.773438 278.949219 61.613281 268.429688 59.597656 C 257.910156 57.582031 247.621094 54.734375 237.5625 51.054688 C 222.523438 45.898438 208.253906 39.128906 194.757812 30.746094 C 193.761719 30.078125 192.691406 29.566406 191.542969 29.21875 C 190.394531 28.867188 189.222656 28.695312 188.019531 28.695312 C 186.820312 28.695312 185.648438 28.867188 184.5 29.21875 C 183.351562 29.566406 182.28125 30.078125 181.285156 30.746094 C 167.664062 39.144531 153.269531 45.917969 138.105469 51.054688 C 128.058594 54.730469 117.785156 57.574219 107.277344 59.59375 C 96.769531 61.609375 86.167969 62.769531 75.472656 63.078125 L 67.988281 63.078125 C 66.445312 63.085938 64.945312 63.339844 63.484375 63.835938 C 62.023438 64.335938 60.679688 65.054688 59.457031 65.988281 L 138.40625 71.140625 C 140.046875 71.25 141.679688 71.4375 143.300781 71.703125 C 144.925781 71.964844 146.53125 72.304688 148.125 72.71875 C 149.714844 73.132812 151.285156 73.621094 152.828125 74.183594 C 154.375 74.746094 155.890625 75.378906 157.375 76.082031 C 158.859375 76.789062 160.308594 77.5625 161.722656 78.402344 C 163.132812 79.242188 164.503906 80.148438 165.832031 81.117188 C 167.15625 82.085938 168.4375 83.113281 169.667969 84.203125 C 170.894531 85.292969 172.070312 86.4375 173.195312 87.636719 C 174.316406 88.835938 175.378906 90.085938 176.382812 91.386719 C 177.386719 92.6875 178.328125 94.03125 179.203125 95.417969 C 180.082031 96.808594 180.890625 98.234375 181.632812 99.699219 C 182.375 101.160156 183.046875 102.65625 183.648438 104.183594 C 184.25 105.710938 184.777344 107.265625 185.230469 108.839844 C 185.6875 110.417969 186.066406 112.011719 186.371094 113.625 C 186.671875 115.238281 186.902344 116.863281 187.050781 118.496094 C 187.203125 120.128906 187.277344 121.765625 187.273438 123.410156 L 187.273438 342.855469 C 191.902344 342.847656 196.511719 342.542969 201.105469 341.9375 C 205.695312 341.332031 210.226562 340.429688 214.699219 339.234375 C 219.171875 338.035156 223.542969 336.550781 227.824219 334.785156 C 232.101562 333.015625 236.246094 330.976562 240.253906 328.667969 L 266.746094 313.734375 C 268.816406 312.542969 270.84375 311.289062 272.832031 309.964844 C 274.816406 308.644531 276.757812 307.257812 278.65625 305.808594 C 280.550781 304.359375 282.398438 302.847656 284.195312 301.277344 C 285.992188 299.707031 287.734375 298.082031 289.425781 296.398438 C 291.113281 294.714844 292.746094 292.976562 294.324219 291.1875 C 295.898438 289.394531 297.414062 287.554688 298.871094 285.664062 C 300.324219 283.777344 301.71875 281.839844 303.046875 279.859375 C 304.375 277.878906 305.636719 275.859375 306.832031 273.792969 C 308.027344 271.730469 309.152344 269.632812 310.210938 267.496094 C 311.269531 265.359375 312.253906 263.1875 313.171875 260.988281 C 314.085938 258.785156 314.929688 256.558594 315.699219 254.300781 C 316.464844 252.046875 317.160156 249.765625 317.78125 247.464844 C 318.398438 245.164062 318.941406 242.84375 319.410156 240.507812 C 319.878906 238.171875 320.269531 235.820312 320.582031 233.457031 C 320.894531 231.09375 321.128906 228.726562 321.285156 226.347656 C 321.445312 223.96875 321.523438 221.589844 321.523438 219.207031 L 321.523438 77.339844 C 321.542969 76.863281 321.535156 76.386719 321.507812 75.910156 C 321.476562 75.433594 321.417969 74.960938 321.339844 74.488281 C 321.257812 74.019531 321.15625 73.554688 321.027344 73.09375 C 320.898438 72.636719 320.746094 72.183594 320.570312 71.742188 C 320.394531 71.296875 320.195312 70.863281 319.972656 70.441406 C 319.75 70.015625 319.507812 69.605469 319.246094 69.210938 C 318.980469 68.8125 318.695312 68.429688 318.394531 68.058594 C 318.089844 67.691406 317.765625 67.339844 317.425781 67.003906 C 317.085938 66.671875 316.726562 66.355469 316.355469 66.058594 C 315.980469 65.757812 315.59375 65.480469 315.1875 65.222656 C 314.785156 64.96875 314.371094 64.730469 313.945312 64.515625 C 313.515625 64.304688 313.078125 64.113281 312.632812 63.945312 C 312.183594 63.773438 311.730469 63.628906 311.265625 63.507812 C 310.804688 63.386719 310.335938 63.289062 309.863281 63.21875 C 309.390625 63.144531 308.917969 63.097656 308.4375 63.074219 C 307.960938 63.050781 307.484375 63.050781 307.007812 63.078125 Z M 307.007812 63.078125 "/>
</clipPath>
<linearGradient id="linear1" gradientUnits="userSpaceOnUse" x1="24.43" y1="45.08" x2="24.43" y2="3.004951" gradientTransform="matrix(7.483353,0,0,7.466665,7.672226,6.25641)">
<stop offset="0" style="stop-color:rgb(12.814331%,18.882751%,41.981506%);stop-opacity:1;"/>
<stop offset="0.015625" style="stop-color:rgb(12.794495%,18.85376%,41.841125%);stop-opacity:1;"/>
<stop offset="0.03125" style="stop-color:rgb(12.757874%,18.795776%,41.558838%);stop-opacity:1;"/>
<stop offset="0.046875" style="stop-color:rgb(12.721252%,18.739319%,41.278076%);stop-opacity:1;"/>
<stop offset="0.0625" style="stop-color:rgb(12.683105%,18.682861%,40.995789%);stop-opacity:1;"/>
<stop offset="0.078125" style="stop-color:rgb(12.646484%,18.624878%,40.713501%);stop-opacity:1;"/>
<stop offset="0.09375" style="stop-color:rgb(12.608337%,18.56842%,40.432739%);stop-opacity:1;"/>
<stop offset="0.109375" style="stop-color:rgb(12.571716%,18.510437%,40.150452%);stop-opacity:1;"/>
<stop offset="0.125" style="stop-color:rgb(12.535095%,18.453979%,39.86969%);stop-opacity:1;"/>
<stop offset="0.140625" style="stop-color:rgb(12.454224%,18.382263%,39.567566%);stop-opacity:1;"/>
<stop offset="0.15625" style="stop-color:rgb(12.29248%,18.283081%,39.225769%);stop-opacity:1;"/>
<stop offset="0.171875" style="stop-color:rgb(12.095642%,18.170166%,38.867188%);stop-opacity:1;"/>
<stop offset="0.1875" style="stop-color:rgb(11.897278%,18.058777%,38.508606%);stop-opacity:1;"/>
<stop offset="0.203125" style="stop-color:rgb(11.698914%,17.947388%,38.150024%);stop-opacity:1;"/>
<stop offset="0.21875" style="stop-color:rgb(11.502075%,17.835999%,37.791443%);stop-opacity:1;"/>
<stop offset="0.234375" style="stop-color:rgb(11.303711%,17.724609%,37.432861%);stop-opacity:1;"/>
<stop offset="0.25" style="stop-color:rgb(11.105347%,17.61322%,37.07428%);stop-opacity:1;"/>
<stop offset="0.265625" style="stop-color:rgb(10.908508%,17.501831%,36.715698%);stop-opacity:1;"/>
<stop offset="0.28125" style="stop-color:rgb(10.710144%,17.388916%,36.357117%);stop-opacity:1;"/>
<stop offset="0.296875" style="stop-color:rgb(10.513306%,17.277527%,35.998535%);stop-opacity:1;"/>
<stop offset="0.3125" style="stop-color:rgb(10.314941%,17.166138%,35.641479%);stop-opacity:1;"/>
<stop offset="0.328125" style="stop-color:rgb(10.116577%,17.054749%,35.282898%);stop-opacity:1;"/>
<stop offset="0.34375" style="stop-color:rgb(9.919739%,16.943359%,34.924316%);stop-opacity:1;"/>
<stop offset="0.359375" style="stop-color:rgb(9.721375%,16.83197%,34.565735%);stop-opacity:1;"/>
<stop offset="0.375" style="stop-color:rgb(9.52301%,16.720581%,34.207153%);stop-opacity:1;"/>
<stop offset="0.390625" style="stop-color:rgb(9.326172%,16.607666%,33.848572%);stop-opacity:1;"/>
<stop offset="0.40625" style="stop-color:rgb(9.127808%,16.496277%,33.48999%);stop-opacity:1;"/>
<stop offset="0.421875" style="stop-color:rgb(8.929443%,16.384888%,33.131409%);stop-opacity:1;"/>
<stop offset="0.4375" style="stop-color:rgb(8.732605%,16.273499%,32.772827%);stop-opacity:1;"/>
<stop offset="0.453125" style="stop-color:rgb(8.534241%,16.162109%,32.414246%);stop-opacity:1;"/>
<stop offset="0.46875" style="stop-color:rgb(8.335876%,16.05072%,32.055664%);stop-opacity:1;"/>
<stop offset="0.484375" style="stop-color:rgb(8.139038%,15.939331%,31.697083%);stop-opacity:1;"/>
<stop offset="0.5" style="stop-color:rgb(7.940674%,15.827942%,31.338501%);stop-opacity:1;"/>
<stop offset="0.515625" style="stop-color:rgb(7.74231%,15.715027%,30.979919%);stop-opacity:1;"/>
<stop offset="0.53125" style="stop-color:rgb(7.545471%,15.603638%,30.621338%);stop-opacity:1;"/>
<stop offset="0.546875" style="stop-color:rgb(7.347107%,15.492249%,30.262756%);stop-opacity:1;"/>
<stop offset="0.5625" style="stop-color:rgb(7.148743%,15.380859%,29.905701%);stop-opacity:1;"/>
<stop offset="0.578125" style="stop-color:rgb(6.951904%,15.26947%,29.547119%);stop-opacity:1;"/>
<stop offset="0.59375" style="stop-color:rgb(6.75354%,15.158081%,29.188538%);stop-opacity:1;"/>
<stop offset="0.609375" style="stop-color:rgb(6.555176%,15.046692%,28.829956%);stop-opacity:1;"/>
<stop offset="0.625" style="stop-color:rgb(6.358337%,14.933777%,28.471375%);stop-opacity:1;"/>
<stop offset="0.640625" style="stop-color:rgb(6.159973%,14.822388%,28.112793%);stop-opacity:1;"/>
<stop offset="0.65625" style="stop-color:rgb(5.961609%,14.710999%,27.754211%);stop-opacity:1;"/>
<stop offset="0.671875" style="stop-color:rgb(5.764771%,14.599609%,27.39563%);stop-opacity:1;"/>
<stop offset="0.6875" style="stop-color:rgb(5.566406%,14.48822%,27.037048%);stop-opacity:1;"/>
<stop offset="0.703125" style="stop-color:rgb(5.368042%,14.376831%,26.678467%);stop-opacity:1;"/>
<stop offset="0.71875" style="stop-color:rgb(5.171204%,14.265442%,26.319885%);stop-opacity:1;"/>
<stop offset="0.734375" style="stop-color:rgb(4.972839%,14.152527%,25.961304%);stop-opacity:1;"/>
<stop offset="0.75" style="stop-color:rgb(4.774475%,14.041138%,25.602722%);stop-opacity:1;"/>
<stop offset="0.765625" style="stop-color:rgb(4.577637%,13.929749%,25.244141%);stop-opacity:1;"/>
<stop offset="0.78125" style="stop-color:rgb(4.379272%,13.818359%,24.885559%);stop-opacity:1;"/>
<stop offset="0.796875" style="stop-color:rgb(4.180908%,13.70697%,24.526978%);stop-opacity:1;"/>
<stop offset="0.8125" style="stop-color:rgb(3.98407%,13.595581%,24.169922%);stop-opacity:1;"/>
<stop offset="0.828125" style="stop-color:rgb(3.785706%,13.484192%,23.81134%);stop-opacity:1;"/>
<stop offset="0.84375" style="stop-color:rgb(3.587341%,13.371277%,23.452759%);stop-opacity:1;"/>
<stop offset="0.859375" style="stop-color:rgb(3.390503%,13.259888%,23.094177%);stop-opacity:1;"/>
<stop offset="0.875" style="stop-color:rgb(3.192139%,13.148499%,22.735596%);stop-opacity:1;"/>
<stop offset="0.890625" style="stop-color:rgb(2.993774%,13.037109%,22.377014%);stop-opacity:1;"/>
<stop offset="0.90625" style="stop-color:rgb(2.796936%,12.92572%,22.018433%);stop-opacity:1;"/>
<stop offset="0.921875" style="stop-color:rgb(2.598572%,12.814331%,21.659851%);stop-opacity:1;"/>
<stop offset="0.9375" style="stop-color:rgb(2.401733%,12.702942%,21.30127%);stop-opacity:1;"/>
<stop offset="0.953125" style="stop-color:rgb(2.203369%,12.590027%,20.942688%);stop-opacity:1;"/>
<stop offset="0.96875" style="stop-color:rgb(2.005005%,12.478638%,20.584106%);stop-opacity:1;"/>
<stop offset="0.984375" style="stop-color:rgb(1.808167%,12.367249%,20.225525%);stop-opacity:1;"/>
<stop offset="1" style="stop-color:rgb(1.609802%,12.255859%,19.866943%);stop-opacity:1;"/>
</linearGradient>
<clipPath id="clip5">
  <path d="M 140 106 L 234 106 L 234 294 L 140 294 Z M 140 106 "/>
</clipPath>
<clipPath id="clip6">
  <path d="M 182.484375 291.78125 L 169.6875 278.9375 C 168.90625 278.167969 168.300781 277.28125 167.875 276.269531 C 167.445312 275.261719 167.226562 274.210938 167.21875 273.113281 L 167.21875 204.945312 C 167.226562 203.675781 167.085938 202.421875 166.792969 201.183594 C 166.5 199.949219 166.066406 198.765625 165.484375 197.632812 C 164.90625 196.5 164.199219 195.457031 163.367188 194.496094 C 162.53125 193.535156 161.597656 192.6875 160.558594 191.953125 C 159.878906 191.484375 159.214844 191 158.5625 190.496094 C 157.910156 189.992188 157.273438 189.472656 156.648438 188.9375 C 156.023438 188.402344 155.414062 187.847656 154.816406 187.28125 C 154.222656 186.710938 153.644531 186.128906 153.078125 185.527344 C 152.515625 184.929688 151.964844 184.316406 151.433594 183.6875 C 150.902344 183.058594 150.386719 182.417969 149.890625 181.761719 C 149.390625 181.109375 148.910156 180.441406 148.449219 179.757812 C 147.988281 179.078125 147.542969 178.386719 147.117188 177.683594 C 146.691406 176.980469 146.285156 176.265625 145.894531 175.539062 C 145.507812 174.8125 145.140625 174.078125 144.789062 173.332031 C 144.441406 172.589844 144.113281 171.835938 143.804688 171.074219 C 143.496094 170.3125 143.207031 169.539062 142.9375 168.761719 C 142.667969 167.984375 142.421875 167.203125 142.195312 166.410156 C 141.96875 165.621094 141.761719 164.824219 141.578125 164.023438 C 141.394531 163.222656 141.230469 162.417969 141.089844 161.605469 C 140.945312 160.796875 140.824219 159.984375 140.726562 159.167969 C 140.628906 158.351562 140.550781 157.53125 140.496094 156.710938 C 140.441406 155.890625 140.40625 155.070312 140.394531 154.25 C 140.382812 153.425781 140.390625 152.605469 140.421875 151.785156 C 140.457031 150.960938 140.507812 150.140625 140.582031 149.324219 C 140.660156 148.503906 140.753906 147.6875 140.875 146.875 C 140.992188 146.058594 141.132812 145.25 141.292969 144.445312 C 141.453125 143.636719 141.636719 142.835938 141.839844 142.039062 C 142.042969 141.242188 142.269531 140.453125 142.511719 139.667969 C 142.757812 138.882812 143.023438 138.105469 143.3125 137.332031 C 143.597656 136.5625 143.90625 135.800781 144.234375 135.042969 C 144.558594 134.289062 144.90625 133.542969 145.273438 132.808594 C 145.640625 132.070312 146.027344 131.347656 146.429688 130.628906 C 146.835938 129.914062 147.257812 129.207031 147.703125 128.515625 C 148.144531 127.820312 148.605469 127.140625 149.082031 126.472656 C 149.5625 125.800781 150.058594 125.144531 150.570312 124.5 C 151.085938 123.859375 151.613281 123.230469 152.160156 122.613281 C 152.707031 122 153.269531 121.398438 153.847656 120.8125 C 154.425781 120.226562 155.019531 119.65625 155.628906 119.101562 C 156.238281 118.546875 156.859375 118.011719 157.496094 117.488281 C 158.136719 116.96875 158.785156 116.464844 159.449219 115.976562 C 160.113281 115.488281 160.789062 115.019531 161.476562 114.566406 C 162.167969 114.117188 162.867188 113.683594 163.578125 113.269531 C 164.289062 112.855469 165.011719 112.460938 165.746094 112.082031 C 166.476562 111.707031 167.21875 111.347656 167.972656 111.011719 C 168.722656 110.675781 169.484375 110.355469 170.25 110.058594 C 171.019531 109.761719 171.796875 109.484375 172.578125 109.230469 C 173.359375 108.972656 174.148438 108.738281 174.945312 108.523438 C 175.742188 108.308594 176.542969 108.113281 177.347656 107.941406 C 178.152344 107.769531 178.964844 107.617188 179.777344 107.488281 C 180.589844 107.359375 181.40625 107.25 182.226562 107.164062 C 183.046875 107.078125 183.867188 107.011719 184.691406 106.96875 C 185.511719 106.925781 186.335938 106.902344 187.160156 106.902344 C 187.984375 106.902344 188.808594 106.925781 189.632812 106.96875 C 190.453125 107.011719 191.273438 107.078125 192.09375 107.164062 C 192.914062 107.25 193.730469 107.359375 194.542969 107.488281 C 195.359375 107.617188 196.167969 107.769531 196.972656 107.941406 C 197.777344 108.113281 198.578125 108.308594 199.375 108.523438 C 200.171875 108.738281 200.960938 108.972656 201.742188 109.230469 C 202.527344 109.484375 203.300781 109.761719 204.070312 110.058594 C 204.839844 110.355469 205.597656 110.675781 206.347656 111.011719 C 207.101562 111.347656 207.84375 111.707031 208.574219 112.082031 C 209.308594 112.460938 210.03125 112.855469 210.742188 113.269531 C 211.453125 113.683594 212.152344 114.117188 212.84375 114.566406 C 213.53125 115.019531 214.207031 115.488281 214.871094 115.976562 C 215.535156 116.464844 216.1875 116.96875 216.824219 117.488281 C 217.460938 118.011719 218.082031 118.546875 218.691406 119.101562 C 219.300781 119.65625 219.894531 120.226562 220.472656 120.8125 C 221.050781 121.398438 221.613281 122 222.160156 122.613281 C 222.707031 123.230469 223.238281 123.859375 223.75 124.5 C 224.261719 125.144531 224.757812 125.800781 225.238281 126.46875 C 225.714844 127.140625 226.175781 127.820312 226.617188 128.515625 C 227.0625 129.207031 227.484375 129.914062 227.890625 130.628906 C 228.296875 131.347656 228.679688 132.070312 229.046875 132.808594 C 229.414062 133.542969 229.761719 134.289062 230.089844 135.042969 C 230.414062 135.800781 230.722656 136.5625 231.007812 137.332031 C 231.296875 138.105469 231.5625 138.882812 231.808594 139.667969 C 232.054688 140.453125 232.277344 141.242188 232.480469 142.039062 C 232.683594 142.835938 232.867188 143.636719 233.027344 144.445312 C 233.191406 145.25 233.328125 146.058594 233.449219 146.875 C 233.566406 147.6875 233.664062 148.503906 233.738281 149.324219 C 233.8125 150.140625 233.867188 150.960938 233.898438 151.785156 C 233.929688 152.605469 233.9375 153.425781 233.925781 154.25 C 233.914062 155.070312 233.878906 155.890625 233.824219 156.710938 C 233.769531 157.53125 233.691406 158.351562 233.59375 159.167969 C 233.496094 159.984375 233.375 160.796875 233.234375 161.605469 C 233.089844 162.417969 232.925781 163.222656 232.742188 164.023438 C 232.558594 164.824219 232.351562 165.621094 232.125 166.410156 C 231.898438 167.203125 231.652344 167.984375 231.382812 168.761719 C 231.113281 169.539062 230.828125 170.3125 230.515625 171.074219 C 230.207031 171.835938 229.878906 172.589844 229.53125 173.332031 C 229.179688 174.078125 228.8125 174.8125 228.425781 175.539062 C 228.035156 176.265625 227.628906 176.980469 227.203125 177.683594 C 226.777344 178.386719 226.335938 179.078125 225.871094 179.757812 C 225.410156 180.441406 224.929688 181.109375 224.429688 181.761719 C 223.933594 182.417969 223.417969 183.058594 222.886719 183.6875 C 222.355469 184.316406 221.808594 184.929688 221.242188 185.527344 C 220.679688 186.128906 220.097656 186.710938 219.503906 187.28125 C 218.90625 187.847656 218.296875 188.402344 217.671875 188.9375 C 217.050781 189.472656 216.410156 189.992188 215.757812 190.496094 C 215.105469 191 214.441406 191.484375 213.765625 191.953125 C 212.75 192.6875 211.839844 193.53125 211.03125 194.484375 C 210.222656 195.4375 209.539062 196.472656 208.976562 197.589844 C 208.417969 198.707031 208 199.875 207.71875 201.09375 C 207.441406 202.3125 207.308594 203.546875 207.328125 204.796875 L 207.328125 213.007812 C 207.308594 213.460938 207.207031 213.894531 207.019531 214.304688 C 206.832031 214.71875 206.574219 215.082031 206.246094 215.394531 C 205.917969 215.707031 205.542969 215.949219 205.125 216.117188 C 204.703125 216.285156 204.265625 216.367188 203.8125 216.367188 C 203.414062 216.429688 203.035156 216.554688 202.683594 216.75 C 202.332031 216.945312 202.023438 217.195312 201.757812 217.5 C 201.496094 217.804688 201.292969 218.144531 201.15625 218.523438 C 201.015625 218.898438 200.945312 219.289062 200.945312 219.691406 C 200.945312 220.09375 201.015625 220.484375 201.15625 220.859375 C 201.292969 221.238281 201.496094 221.578125 201.757812 221.882812 C 202.023438 222.1875 202.332031 222.4375 202.683594 222.632812 C 203.035156 222.828125 203.414062 222.953125 203.8125 223.015625 C 204.257812 223.015625 204.6875 223.097656 205.097656 223.269531 C 205.511719 223.441406 205.875 223.683594 206.191406 223.996094 C 206.507812 224.3125 206.75 224.675781 206.921875 225.085938 C 207.09375 225.5 207.179688 225.929688 207.179688 226.375 C 207.179688 226.796875 207.101562 227.203125 206.941406 227.597656 C 206.785156 227.988281 206.558594 228.339844 206.265625 228.644531 C 205.976562 228.953125 205.636719 229.191406 205.25 229.367188 C 204.863281 229.542969 204.457031 229.640625 204.035156 229.660156 C 203.582031 229.660156 203.144531 229.742188 202.722656 229.910156 C 202.300781 230.078125 201.925781 230.320312 201.601562 230.632812 C 201.273438 230.945312 201.015625 231.308594 200.828125 231.722656 C 200.640625 232.132812 200.539062 232.566406 200.519531 233.019531 L 200.519531 239.664062 C 200.527344 240.121094 200.625 240.554688 200.808594 240.972656 C 200.992188 241.390625 201.25 241.757812 201.578125 242.070312 C 201.910156 242.386719 202.285156 242.625 202.710938 242.792969 C 203.136719 242.957031 203.578125 243.035156 204.035156 243.023438 C 204.433594 243.085938 204.808594 243.210938 205.164062 243.40625 C 205.515625 243.601562 205.824219 243.851562 206.085938 244.15625 C 206.351562 244.460938 206.550781 244.800781 206.691406 245.179688 C 206.832031 245.554688 206.902344 245.945312 206.902344 246.347656 C 206.902344 246.75 206.832031 247.140625 206.691406 247.515625 C 206.550781 247.894531 206.351562 248.234375 206.085938 248.539062 C 205.824219 248.84375 205.515625 249.09375 205.164062 249.289062 C 204.808594 249.484375 204.433594 249.609375 204.035156 249.667969 C 203.589844 249.667969 203.160156 249.753906 202.746094 249.925781 C 202.335938 250.097656 201.96875 250.339844 201.652344 250.652344 C 201.339844 250.96875 201.09375 251.332031 200.925781 251.742188 C 200.753906 252.15625 200.667969 252.585938 200.667969 253.03125 C 200.667969 253.476562 200.753906 253.902344 200.925781 254.316406 C 201.09375 254.726562 201.339844 255.089844 201.652344 255.40625 C 201.96875 255.71875 202.335938 255.964844 202.746094 256.132812 C 203.160156 256.304688 203.589844 256.390625 204.035156 256.390625 C 204.484375 256.378906 204.921875 256.453125 205.34375 256.613281 C 205.761719 256.773438 206.136719 257.007812 206.464844 257.316406 C 206.792969 257.625 207.054688 257.980469 207.242188 258.390625 C 207.429688 258.796875 207.53125 259.226562 207.550781 259.675781 L 207.550781 272.964844 C 207.542969 274.0625 207.324219 275.113281 206.894531 276.121094 C 206.46875 277.128906 205.863281 278.019531 205.082031 278.789062 L 192.285156 291.632812 C 191.972656 291.964844 191.632812 292.265625 191.257812 292.527344 C 190.886719 292.792969 190.488281 293.019531 190.070312 293.203125 C 189.652344 293.386719 189.21875 293.53125 188.773438 293.628906 C 188.328125 293.726562 187.875 293.777344 187.417969 293.785156 C 186.960938 293.792969 186.503906 293.753906 186.054688 293.667969 C 185.605469 293.585938 185.167969 293.457031 184.746094 293.285156 C 184.320312 293.113281 183.917969 292.898438 183.539062 292.648438 C 183.15625 292.394531 182.804688 292.105469 182.484375 291.78125 Z M 182.484375 291.78125 "/>
</clipPath>
<linearGradient id="linear2" gradientUnits="userSpaceOnUse" x1="24" y1="38.509252" x2="24" y2="13.479524" gradientTransform="matrix(7.483353,0,0,7.466665,7.672226,6.25641)">
<stop offset="0" style="stop-color:rgb(10.427856%,82.037354%,88.964844%);stop-opacity:1;"/>
<stop offset="0.015625" style="stop-color:rgb(10.327148%,81.843567%,89.002991%);stop-opacity:1;"/>
<stop offset="0.03125" style="stop-color:rgb(10.127258%,81.45752%,89.079285%);stop-opacity:1;"/>
<stop offset="0.046875" style="stop-color:rgb(9.925842%,81.071472%,89.157104%);stop-opacity:1;"/>
<stop offset="0.0625" style="stop-color:rgb(9.724426%,80.685425%,89.233398%);stop-opacity:1;"/>
<stop offset="0.078125" style="stop-color:rgb(9.524536%,80.299377%,89.309692%);stop-opacity:1;"/>
<stop offset="0.09375" style="stop-color:rgb(9.32312%,79.914856%,89.387512%);stop-opacity:1;"/>
<stop offset="0.109375" style="stop-color:rgb(9.12323%,79.528809%,89.463806%);stop-opacity:1;"/>
<stop offset="0.125" style="stop-color:rgb(8.921814%,79.142761%,89.541626%);stop-opacity:1;"/>
<stop offset="0.140625" style="stop-color:rgb(8.721924%,78.756714%,89.61792%);stop-opacity:1;"/>
<stop offset="0.15625" style="stop-color:rgb(8.520508%,78.370667%,89.694214%);stop-opacity:1;"/>
<stop offset="0.171875" style="stop-color:rgb(8.320618%,77.984619%,89.772034%);stop-opacity:1;"/>
<stop offset="0.1875" style="stop-color:rgb(8.119202%,77.600098%,89.848328%);stop-opacity:1;"/>
<stop offset="0.203125" style="stop-color:rgb(7.919312%,77.21405%,89.926147%);stop-opacity:1;"/>
<stop offset="0.21875" style="stop-color:rgb(7.717896%,76.828003%,90.002441%);stop-opacity:1;"/>
<stop offset="0.234375" style="stop-color:rgb(7.516479%,76.441956%,90.078735%);stop-opacity:1;"/>
<stop offset="0.25" style="stop-color:rgb(7.316589%,76.055908%,90.156555%);stop-opacity:1;"/>
<stop offset="0.265625" style="stop-color:rgb(7.115173%,75.669861%,90.232849%);stop-opacity:1;"/>
<stop offset="0.28125" style="stop-color:rgb(6.915283%,75.285339%,90.309143%);stop-opacity:1;"/>
<stop offset="0.296875" style="stop-color:rgb(6.713867%,74.899292%,90.386963%);stop-opacity:1;"/>
<stop offset="0.3125" style="stop-color:rgb(6.513977%,74.513245%,90.463257%);stop-opacity:1;"/>
<stop offset="0.328125" style="stop-color:rgb(6.312561%,74.127197%,90.541077%);stop-opacity:1;"/>
<stop offset="0.34375" style="stop-color:rgb(6.112671%,73.74115%,90.617371%);stop-opacity:1;"/>
<stop offset="0.359375" style="stop-color:rgb(5.911255%,73.355103%,90.693665%);stop-opacity:1;"/>
<stop offset="0.375" style="stop-color:rgb(5.709839%,72.970581%,90.771484%);stop-opacity:1;"/>
<stop offset="0.390625" style="stop-color:rgb(5.509949%,72.584534%,90.847778%);stop-opacity:1;"/>
<stop offset="0.40625" style="stop-color:rgb(5.308533%,72.198486%,90.924072%);stop-opacity:1;"/>
<stop offset="0.421875" style="stop-color:rgb(5.108643%,71.812439%,91.001892%);stop-opacity:1;"/>
<stop offset="0.4375" style="stop-color:rgb(4.907227%,71.426392%,91.078186%);stop-opacity:1;"/>
<stop offset="0.453125" style="stop-color:rgb(4.707336%,71.040344%,91.156006%);stop-opacity:1;"/>
<stop offset="0.46875" style="stop-color:rgb(4.50592%,70.655823%,91.2323%);stop-opacity:1;"/>
<stop offset="0.484375" style="stop-color:rgb(4.30603%,70.269775%,91.308594%);stop-opacity:1;"/>
<stop offset="0.5" style="stop-color:rgb(4.104614%,69.883728%,91.386414%);stop-opacity:1;"/>
<stop offset="0.515625" style="stop-color:rgb(3.904724%,69.497681%,91.462708%);stop-opacity:1;"/>
<stop offset="0.53125" style="stop-color:rgb(3.703308%,69.111633%,91.540527%);stop-opacity:1;"/>
<stop offset="0.546875" style="stop-color:rgb(3.501892%,68.725586%,91.616821%);stop-opacity:1;"/>
<stop offset="0.5625" style="stop-color:rgb(3.302002%,68.341064%,91.693115%);stop-opacity:1;"/>
<stop offset="0.578125" style="stop-color:rgb(3.100586%,67.955017%,91.770935%);stop-opacity:1;"/>
<stop offset="0.59375" style="stop-color:rgb(2.900696%,67.56897%,91.847229%);stop-opacity:1;"/>
<stop offset="0.609375" style="stop-color:rgb(2.69928%,67.182922%,91.923523%);stop-opacity:1;"/>
<stop offset="0.625" style="stop-color:rgb(2.49939%,66.796875%,92.001343%);stop-opacity:1;"/>
<stop offset="0.640625" style="stop-color:rgb(2.297974%,66.410828%,92.077637%);stop-opacity:1;"/>
<stop offset="0.65625" style="stop-color:rgb(2.098083%,66.026306%,92.155457%);stop-opacity:1;"/>
<stop offset="0.671875" style="stop-color:rgb(1.896667%,65.640259%,92.23175%);stop-opacity:1;"/>
<stop offset="0.6875" style="stop-color:rgb(1.695251%,65.254211%,92.308044%);stop-opacity:1;"/>
<stop offset="0.703125" style="stop-color:rgb(1.495361%,64.868164%,92.385864%);stop-opacity:1;"/>
<stop offset="0.71875" style="stop-color:rgb(1.298523%,64.480591%,92.456055%);stop-opacity:1;"/>
<stop offset="0.726563" style="stop-color:rgb(1.254272%,64.144897%,92.38739%);stop-opacity:1;"/>
<stop offset="0.734375" style="stop-color:rgb(1.358032%,63.86261%,92.181396%);stop-opacity:1;"/>
<stop offset="0.742187" style="stop-color:rgb(1.460266%,63.581848%,91.976929%);stop-opacity:1;"/>
<stop offset="0.75" style="stop-color:rgb(1.5625%,63.301086%,91.770935%);stop-opacity:1;"/>
<stop offset="0.757813" style="stop-color:rgb(1.664734%,63.018799%,91.566467%);stop-opacity:1;"/>
<stop offset="0.765625" style="stop-color:rgb(1.766968%,62.738037%,91.360474%);stop-opacity:1;"/>
<stop offset="0.773437" style="stop-color:rgb(1.870728%,62.45575%,91.156006%);stop-opacity:1;"/>
<stop offset="0.78125" style="stop-color:rgb(1.972961%,62.174988%,90.951538%);stop-opacity:1;"/>
<stop offset="0.789063" style="stop-color:rgb(2.075195%,61.8927%,90.745544%);stop-opacity:1;"/>
<stop offset="0.796875" style="stop-color:rgb(2.177429%,61.611938%,90.541077%);stop-opacity:1;"/>
<stop offset="0.804687" style="stop-color:rgb(2.279663%,61.329651%,90.335083%);stop-opacity:1;"/>
<stop offset="0.8125" style="stop-color:rgb(2.383423%,61.048889%,90.130615%);stop-opacity:1;"/>
<stop offset="0.820313" style="stop-color:rgb(2.485657%,60.766602%,89.924622%);stop-opacity:1;"/>
<stop offset="0.828125" style="stop-color:rgb(2.587891%,60.48584%,89.720154%);stop-opacity:1;"/>
<stop offset="0.835937" style="stop-color:rgb(2.690125%,60.205078%,89.515686%);stop-opacity:1;"/>
<stop offset="0.84375" style="stop-color:rgb(2.793884%,59.922791%,89.309692%);stop-opacity:1;"/>
<stop offset="0.851562" style="stop-color:rgb(2.896118%,59.642029%,89.105225%);stop-opacity:1;"/>
<stop offset="0.859375" style="stop-color:rgb(2.998352%,59.359741%,88.899231%);stop-opacity:1;"/>
<stop offset="0.867187" style="stop-color:rgb(3.100586%,59.078979%,88.694763%);stop-opacity:1;"/>
<stop offset="0.875" style="stop-color:rgb(3.20282%,58.796692%,88.48877%);stop-opacity:1;"/>
<stop offset="0.882812" style="stop-color:rgb(3.30658%,58.51593%,88.284302%);stop-opacity:1;"/>
<stop offset="0.890625" style="stop-color:rgb(3.408813%,58.233643%,88.079834%);stop-opacity:1;"/>
<stop offset="0.898437" style="stop-color:rgb(3.511047%,57.952881%,87.87384%);stop-opacity:1;"/>
<stop offset="0.90625" style="stop-color:rgb(3.613281%,57.670593%,87.669373%);stop-opacity:1;"/>
<stop offset="0.914062" style="stop-color:rgb(3.715515%,57.389832%,87.463379%);stop-opacity:1;"/>
<stop offset="0.921875" style="stop-color:rgb(3.819275%,57.10907%,87.258911%);stop-opacity:1;"/>
<stop offset="0.929687" style="stop-color:rgb(3.921509%,56.826782%,87.052917%);stop-opacity:1;"/>
<stop offset="0.9375" style="stop-color:rgb(4.023743%,56.546021%,86.84845%);stop-opacity:1;"/>
<stop offset="0.945312" style="stop-color:rgb(4.125977%,56.263733%,86.643982%);stop-opacity:1;"/>
<stop offset="0.953125" style="stop-color:rgb(4.229736%,55.982971%,86.437988%);stop-opacity:1;"/>
<stop offset="0.960937" style="stop-color:rgb(4.33197%,55.700684%,86.233521%);stop-opacity:1;"/>
<stop offset="0.96875" style="stop-color:rgb(4.434204%,55.419922%,86.027527%);stop-opacity:1;"/>
<stop offset="0.976562" style="stop-color:rgb(4.536438%,55.137634%,85.823059%);stop-opacity:1;"/>
<stop offset="0.984375" style="stop-color:rgb(4.638672%,54.856873%,85.617065%);stop-opacity:1;"/>
<stop offset="0.992188" style="stop-color:rgb(4.742432%,54.574585%,85.412598%);stop-opacity:1;"/>
<stop offset="1" style="stop-color:rgb(4.844666%,54.293823%,85.20813%);stop-opacity:1;"/>
</linearGradient>
<clipPath id="clip7">
  <path d="M 187 107 L 235 107 L 235 294 L 187 294 Z M 187 107 "/>
</clipPath>
<clipPath id="clip8">
  <path d="M 187.273438 107.054688 C 188.511719 107.054688 189.746094 107.097656 190.980469 107.195312 C 192.214844 107.289062 193.445312 107.433594 194.667969 107.625 C 195.890625 107.816406 197.105469 108.058594 198.308594 108.347656 C 199.511719 108.636719 200.703125 108.972656 201.878906 109.355469 C 203.058594 109.738281 204.21875 110.167969 205.359375 110.640625 C 206.503906 111.117188 207.625 111.636719 208.726562 112.203125 C 209.828125 112.765625 210.90625 113.371094 211.957031 114.023438 C 213.011719 114.671875 214.039062 115.363281 215.035156 116.09375 C 216.035156 116.824219 217 117.59375 217.9375 118.402344 C 218.875 119.210938 219.777344 120.054688 220.648438 120.933594 C 221.515625 121.816406 222.347656 122.726562 223.144531 123.671875 C 223.941406 124.617188 224.699219 125.59375 225.417969 126.601562 C 226.136719 127.605469 226.816406 128.640625 227.453125 129.699219 C 228.089844 130.757812 228.679688 131.84375 229.230469 132.949219 C 229.78125 134.054688 230.285156 135.183594 230.746094 136.328125 C 231.207031 137.476562 231.621094 138.640625 231.988281 139.820312 C 232.355469 141 232.675781 142.191406 232.949219 143.398438 C 233.222656 144.601562 233.445312 145.816406 233.621094 147.039062 C 233.796875 148.261719 233.921875 149.492188 234 150.722656 C 234.078125 151.957031 234.105469 153.191406 234.085938 154.425781 C 234.066406 155.660156 233.996094 156.894531 233.875 158.125 C 233.757812 159.351562 233.589844 160.578125 233.375 161.792969 C 233.15625 163.007812 232.890625 164.214844 232.578125 165.410156 C 232.265625 166.605469 231.90625 167.785156 231.5 168.953125 C 231.09375 170.121094 230.640625 171.269531 230.144531 172.402344 C 229.644531 173.53125 229.101562 174.640625 228.515625 175.730469 C 227.929688 176.816406 227.300781 177.878906 226.628906 178.917969 C 225.957031 179.957031 225.246094 180.964844 224.492188 181.945312 C 223.742188 182.929688 222.949219 183.878906 222.121094 184.796875 C 221.296875 185.714844 220.433594 186.601562 219.535156 187.449219 C 218.636719 188.300781 217.703125 189.113281 216.742188 189.890625 C 215.777344 190.667969 214.785156 191.402344 213.765625 192.101562 C 212.75 192.835938 211.839844 193.679688 211.03125 194.632812 C 210.222656 195.585938 209.539062 196.625 208.976562 197.742188 C 208.417969 198.859375 208 200.027344 207.71875 201.242188 C 207.441406 202.460938 207.308594 203.695312 207.328125 204.945312 L 207.328125 213.15625 C 207.308594 213.609375 207.207031 214.042969 207.019531 214.453125 C 206.832031 214.867188 206.574219 215.230469 206.246094 215.542969 C 205.917969 215.855469 205.542969 216.097656 205.125 216.265625 C 204.703125 216.433594 204.265625 216.519531 203.8125 216.519531 C 203.414062 216.578125 203.035156 216.703125 202.683594 216.898438 C 202.332031 217.09375 202.023438 217.34375 201.757812 217.648438 C 201.496094 217.953125 201.292969 218.292969 201.15625 218.671875 C 201.015625 219.046875 200.945312 219.4375 200.945312 219.839844 C 200.945312 220.242188 201.015625 220.632812 201.15625 221.007812 C 201.292969 221.386719 201.496094 221.726562 201.757812 222.03125 C 202.023438 222.335938 202.332031 222.585938 202.683594 222.78125 C 203.035156 222.976562 203.414062 223.101562 203.8125 223.164062 C 204.257812 223.164062 204.6875 223.25 205.101562 223.417969 C 205.511719 223.589844 205.875 223.832031 206.191406 224.148438 C 206.507812 224.460938 206.75 224.824219 206.921875 225.238281 C 207.09375 225.648438 207.179688 226.078125 207.179688 226.523438 C 207.179688 226.945312 207.101562 227.355469 206.941406 227.746094 C 206.785156 228.140625 206.558594 228.488281 206.265625 228.792969 C 205.976562 229.101562 205.636719 229.339844 205.25 229.515625 C 204.863281 229.691406 204.457031 229.789062 204.035156 229.808594 C 203.582031 229.808594 203.144531 229.890625 202.722656 230.058594 C 202.300781 230.230469 201.925781 230.46875 201.601562 230.78125 C 201.273438 231.097656 201.015625 231.457031 200.828125 231.871094 C 200.640625 232.285156 200.539062 232.714844 200.519531 233.167969 L 200.519531 239.8125 C 200.527344 240.269531 200.625 240.707031 200.808594 241.121094 C 200.992188 241.539062 201.25 241.90625 201.578125 242.222656 C 201.910156 242.535156 202.285156 242.777344 202.710938 242.941406 C 203.136719 243.105469 203.578125 243.183594 204.035156 243.171875 C 204.433594 243.234375 204.808594 243.359375 205.164062 243.554688 C 205.515625 243.75 205.824219 244 206.085938 244.304688 C 206.351562 244.609375 206.550781 244.949219 206.691406 245.328125 C 206.832031 245.703125 206.902344 246.09375 206.902344 246.496094 C 206.902344 246.898438 206.832031 247.289062 206.691406 247.664062 C 206.550781 248.042969 206.351562 248.382812 206.085938 248.6875 C 205.824219 248.992188 205.515625 249.242188 205.164062 249.4375 C 204.808594 249.632812 204.433594 249.757812 204.035156 249.820312 C 203.589844 249.820312 203.160156 249.902344 202.746094 250.074219 C 202.335938 250.246094 201.96875 250.488281 201.652344 250.804688 C 201.339844 251.117188 201.09375 251.480469 200.925781 251.894531 C 200.753906 252.304688 200.667969 252.734375 200.667969 253.179688 C 200.667969 253.625 200.753906 254.054688 200.925781 254.464844 C 201.09375 254.875 201.339844 255.238281 201.652344 255.554688 C 201.96875 255.871094 202.335938 256.113281 202.746094 256.285156 C 203.160156 256.453125 203.589844 256.539062 204.035156 256.539062 C 204.484375 256.527344 204.921875 256.605469 205.34375 256.765625 C 205.761719 256.925781 206.136719 257.160156 206.464844 257.464844 C 206.792969 257.773438 207.054688 258.128906 207.242188 258.539062 C 207.429688 258.945312 207.53125 259.375 207.550781 259.824219 L 207.550781 273.113281 C 207.542969 274.210938 207.324219 275.261719 206.894531 276.269531 C 206.46875 277.28125 205.863281 278.167969 205.082031 278.9375 L 192.285156 291.78125 C 191.644531 292.398438 190.90625 292.875 190.078125 293.210938 C 189.25 293.546875 188.390625 293.71875 187.496094 293.722656 Z M 187.273438 107.054688 "/>
</clipPath>
<linearGradient id="linear3" gradientUnits="userSpaceOnUse" x1="31.719999" y1="38.978417" x2="31.719999" y2="32.72" gradientTransform="matrix(0,7.466665,7.483353,0,-57.582617,-36.452909)">
<stop offset="0" style="stop-color:rgb(95.298767%,69.796753%,45.28656%);stop-opacity:1;"/>
<stop offset="0.015625" style="stop-color:rgb(95.298767%,69.680786%,45.246887%);stop-opacity:1;"/>
<stop offset="0.03125" style="stop-color:rgb(95.298767%,69.447327%,45.167542%);stop-opacity:1;"/>
<stop offset="0.046875" style="stop-color:rgb(95.298767%,69.215393%,45.089722%);stop-opacity:1;"/>
<stop offset="0.0625" style="stop-color:rgb(95.298767%,68.981934%,45.011902%);stop-opacity:1;"/>
<stop offset="0.078125" style="stop-color:rgb(95.298767%,68.75%,44.934082%);stop-opacity:1;"/>
<stop offset="0.09375" style="stop-color:rgb(95.298767%,68.516541%,44.856262%);stop-opacity:1;"/>
<stop offset="0.109375" style="stop-color:rgb(95.298767%,68.284607%,44.778442%);stop-opacity:1;"/>
<stop offset="0.125" style="stop-color:rgb(95.298767%,68.051147%,44.700623%);stop-opacity:1;"/>
<stop offset="0.140625" style="stop-color:rgb(95.298767%,67.817688%,44.622803%);stop-opacity:1;"/>
<stop offset="0.15625" style="stop-color:rgb(95.298767%,67.585754%,44.544983%);stop-opacity:1;"/>
<stop offset="0.171875" style="stop-color:rgb(95.298767%,67.352295%,44.467163%);stop-opacity:1;"/>
<stop offset="0.1875" style="stop-color:rgb(95.298767%,67.120361%,44.387817%);stop-opacity:1;"/>
<stop offset="0.203125" style="stop-color:rgb(95.298767%,66.886902%,44.309998%);stop-opacity:1;"/>
<stop offset="0.21875" style="stop-color:rgb(95.298767%,66.654968%,44.232178%);stop-opacity:1;"/>
<stop offset="0.234375" style="stop-color:rgb(95.298767%,66.421509%,44.154358%);stop-opacity:1;"/>
<stop offset="0.25" style="stop-color:rgb(95.298767%,66.189575%,44.076538%);stop-opacity:1;"/>
<stop offset="0.265625" style="stop-color:rgb(95.298767%,65.956116%,43.998718%);stop-opacity:1;"/>
<stop offset="0.28125" style="stop-color:rgb(95.298767%,65.724182%,43.920898%);stop-opacity:1;"/>
<stop offset="0.296875" style="stop-color:rgb(95.298767%,65.490723%,43.843079%);stop-opacity:1;"/>
<stop offset="0.3125" style="stop-color:rgb(95.298767%,65.257263%,43.765259%);stop-opacity:1;"/>
<stop offset="0.328125" style="stop-color:rgb(95.298767%,65.02533%,43.685913%);stop-opacity:1;"/>
<stop offset="0.34375" style="stop-color:rgb(95.298767%,64.79187%,43.608093%);stop-opacity:1;"/>
<stop offset="0.359375" style="stop-color:rgb(95.298767%,64.559937%,43.530273%);stop-opacity:1;"/>
<stop offset="0.375" style="stop-color:rgb(95.298767%,64.326477%,43.452454%);stop-opacity:1;"/>
<stop offset="0.390625" style="stop-color:rgb(95.298767%,64.094543%,43.374634%);stop-opacity:1;"/>
<stop offset="0.40625" style="stop-color:rgb(95.298767%,63.861084%,43.296814%);stop-opacity:1;"/>
<stop offset="0.421875" style="stop-color:rgb(95.298767%,63.62915%,43.218994%);stop-opacity:1;"/>
<stop offset="0.4375" style="stop-color:rgb(95.298767%,63.395691%,43.141174%);stop-opacity:1;"/>
<stop offset="0.453125" style="stop-color:rgb(95.298767%,63.163757%,43.063354%);stop-opacity:1;"/>
<stop offset="0.46875" style="stop-color:rgb(95.298767%,62.930298%,42.984009%);stop-opacity:1;"/>
<stop offset="0.484375" style="stop-color:rgb(95.298767%,62.696838%,42.906189%);stop-opacity:1;"/>
<stop offset="0.5" style="stop-color:rgb(95.298767%,62.464905%,42.828369%);stop-opacity:1;"/>
<stop offset="0.515625" style="stop-color:rgb(95.298767%,62.231445%,42.750549%);stop-opacity:1;"/>
<stop offset="0.53125" style="stop-color:rgb(95.298767%,61.999512%,42.672729%);stop-opacity:1;"/>
<stop offset="0.546875" style="stop-color:rgb(95.298767%,61.766052%,42.59491%);stop-opacity:1;"/>
<stop offset="0.5625" style="stop-color:rgb(95.298767%,61.534119%,42.51709%);stop-opacity:1;"/>
<stop offset="0.578125" style="stop-color:rgb(95.298767%,61.300659%,42.43927%);stop-opacity:1;"/>
<stop offset="0.59375" style="stop-color:rgb(95.298767%,61.068726%,42.36145%);stop-opacity:1;"/>
<stop offset="0.609375" style="stop-color:rgb(95.298767%,60.835266%,42.28363%);stop-opacity:1;"/>
<stop offset="0.625" style="stop-color:rgb(95.298767%,60.603333%,42.204285%);stop-opacity:1;"/>
<stop offset="0.640625" style="stop-color:rgb(95.298767%,60.369873%,42.126465%);stop-opacity:1;"/>
<stop offset="0.65625" style="stop-color:rgb(95.298767%,60.136414%,42.048645%);stop-opacity:1;"/>
<stop offset="0.671875" style="stop-color:rgb(95.298767%,59.90448%,41.970825%);stop-opacity:1;"/>
<stop offset="0.6875" style="stop-color:rgb(95.298767%,59.671021%,41.893005%);stop-opacity:1;"/>
<stop offset="0.703125" style="stop-color:rgb(95.298767%,59.439087%,41.815186%);stop-opacity:1;"/>
<stop offset="0.71875" style="stop-color:rgb(95.298767%,59.205627%,41.737366%);stop-opacity:1;"/>
<stop offset="0.734375" style="stop-color:rgb(95.298767%,58.973694%,41.659546%);stop-opacity:1;"/>
<stop offset="0.75" style="stop-color:rgb(95.298767%,58.740234%,41.581726%);stop-opacity:1;"/>
<stop offset="0.765625" style="stop-color:rgb(95.298767%,58.508301%,41.50238%);stop-opacity:1;"/>
<stop offset="0.78125" style="stop-color:rgb(95.298767%,58.274841%,41.424561%);stop-opacity:1;"/>
<stop offset="0.796875" style="stop-color:rgb(95.298767%,58.041382%,41.346741%);stop-opacity:1;"/>
<stop offset="0.8125" style="stop-color:rgb(95.298767%,57.809448%,41.268921%);stop-opacity:1;"/>
<stop offset="0.828125" style="stop-color:rgb(95.285034%,57.546997%,41.212463%);stop-opacity:1;"/>
<stop offset="0.84375" style="stop-color:rgb(95.249939%,57.232666%,41.189575%);stop-opacity:1;"/>
<stop offset="0.859375" style="stop-color:rgb(95.205688%,56.900024%,41.18042%);stop-opacity:1;"/>
<stop offset="0.875" style="stop-color:rgb(95.161438%,56.565857%,41.171265%);stop-opacity:1;"/>
<stop offset="0.890625" style="stop-color:rgb(95.117188%,56.231689%,41.162109%);stop-opacity:1;"/>
<stop offset="0.90625" style="stop-color:rgb(95.072937%,55.897522%,41.152954%);stop-opacity:1;"/>
<stop offset="0.921875" style="stop-color:rgb(95.028687%,55.56488%,41.143799%);stop-opacity:1;"/>
<stop offset="0.9375" style="stop-color:rgb(94.984436%,55.230713%,41.134644%);stop-opacity:1;"/>
<stop offset="0.953125" style="stop-color:rgb(94.940186%,54.896545%,41.125488%);stop-opacity:1;"/>
<stop offset="0.96875" style="stop-color:rgb(94.895935%,54.562378%,41.116333%);stop-opacity:1;"/>
<stop offset="0.984375" style="stop-color:rgb(94.851685%,54.229736%,41.107178%);stop-opacity:1;"/>
<stop offset="1" style="stop-color:rgb(94.807434%,53.895569%,41.098022%);stop-opacity:1;"/>
</linearGradient>
<linearGradient id="linear4" gradientUnits="userSpaceOnUse" x1="27.129999" y1="38.499998" x2="27.129999" y2="13.49956" gradientTransform="matrix(7.483353,0,0,7.466665,7.672226,6.25641)">
<stop offset="0" style="stop-color:rgb(5.459595%,72.486877%,90.867615%);stop-opacity:1;"/>
<stop offset="0.015625" style="stop-color:rgb(5.374146%,72.325134%,90.899658%);stop-opacity:1;"/>
<stop offset="0.03125" style="stop-color:rgb(5.206299%,72.001648%,90.963745%);stop-opacity:1;"/>
<stop offset="0.046875" style="stop-color:rgb(5.038452%,71.678162%,91.029358%);stop-opacity:1;"/>
<stop offset="0.0625" style="stop-color:rgb(4.86908%,71.354675%,91.093445%);stop-opacity:1;"/>
<stop offset="0.078125" style="stop-color:rgb(4.701233%,71.029663%,91.157532%);stop-opacity:1;"/>
<stop offset="0.09375" style="stop-color:rgb(4.533386%,70.706177%,91.221619%);stop-opacity:1;"/>
<stop offset="0.109375" style="stop-color:rgb(4.364014%,70.38269%,91.287231%);stop-opacity:1;"/>
<stop offset="0.125" style="stop-color:rgb(4.196167%,70.059204%,91.351318%);stop-opacity:1;"/>
<stop offset="0.140625" style="stop-color:rgb(4.02832%,69.735718%,91.415405%);stop-opacity:1;"/>
<stop offset="0.15625" style="stop-color:rgb(3.858948%,69.412231%,91.479492%);stop-opacity:1;"/>
<stop offset="0.171875" style="stop-color:rgb(3.691101%,69.088745%,91.545105%);stop-opacity:1;"/>
<stop offset="0.1875" style="stop-color:rgb(3.523254%,68.765259%,91.609192%);stop-opacity:1;"/>
<stop offset="0.203125" style="stop-color:rgb(3.353882%,68.441772%,91.673279%);stop-opacity:1;"/>
<stop offset="0.21875" style="stop-color:rgb(3.186035%,68.118286%,91.737366%);stop-opacity:1;"/>
<stop offset="0.234375" style="stop-color:rgb(3.018188%,67.7948%,91.802979%);stop-opacity:1;"/>
<stop offset="0.25" style="stop-color:rgb(2.848816%,67.471313%,91.867065%);stop-opacity:1;"/>
<stop offset="0.265625" style="stop-color:rgb(2.680969%,67.147827%,91.931152%);stop-opacity:1;"/>
<stop offset="0.28125" style="stop-color:rgb(2.511597%,66.822815%,91.996765%);stop-opacity:1;"/>
<stop offset="0.296875" style="stop-color:rgb(2.34375%,66.499329%,92.060852%);stop-opacity:1;"/>
<stop offset="0.3125" style="stop-color:rgb(2.175903%,66.175842%,92.124939%);stop-opacity:1;"/>
<stop offset="0.328125" style="stop-color:rgb(2.006531%,65.852356%,92.189026%);stop-opacity:1;"/>
<stop offset="0.34375" style="stop-color:rgb(1.838684%,65.52887%,92.254639%);stop-opacity:1;"/>
<stop offset="0.359375" style="stop-color:rgb(1.670837%,65.205383%,92.318726%);stop-opacity:1;"/>
<stop offset="0.375" style="stop-color:rgb(1.501465%,64.881897%,92.382812%);stop-opacity:1;"/>
<stop offset="0.390625" style="stop-color:rgb(1.333618%,64.558411%,92.446899%);stop-opacity:1;"/>
<stop offset="0.398438" style="stop-color:rgb(1.24054%,64.300537%,92.454529%);stop-opacity:1;"/>
<stop offset="0.40625" style="stop-color:rgb(1.275635%,64.086914%,92.344666%);stop-opacity:1;"/>
<stop offset="0.414063" style="stop-color:rgb(1.36261%,63.850403%,92.172241%);stop-opacity:1;"/>
<stop offset="0.421875" style="stop-color:rgb(1.448059%,63.613892%,91.999817%);stop-opacity:1;"/>
<stop offset="0.429687" style="stop-color:rgb(1.535034%,63.378906%,91.827393%);stop-opacity:1;"/>
<stop offset="0.4375" style="stop-color:rgb(1.620483%,63.142395%,91.656494%);stop-opacity:1;"/>
<stop offset="0.445312" style="stop-color:rgb(1.705933%,62.905884%,91.48407%);stop-opacity:1;"/>
<stop offset="0.453125" style="stop-color:rgb(1.792908%,62.669373%,91.311646%);stop-opacity:1;"/>
<stop offset="0.460938" style="stop-color:rgb(1.878357%,62.434387%,91.139221%);stop-opacity:1;"/>
<stop offset="0.46875" style="stop-color:rgb(1.963806%,62.197876%,90.968323%);stop-opacity:1;"/>
<stop offset="0.476562" style="stop-color:rgb(2.050781%,61.961365%,90.795898%);stop-opacity:1;"/>
<stop offset="0.484375" style="stop-color:rgb(2.13623%,61.724854%,90.623474%);stop-opacity:1;"/>
<stop offset="0.492188" style="stop-color:rgb(2.223206%,61.489868%,90.45105%);stop-opacity:1;"/>
<stop offset="0.5" style="stop-color:rgb(2.308655%,61.253357%,90.278625%);stop-opacity:1;"/>
<stop offset="0.507812" style="stop-color:rgb(2.394104%,61.016846%,90.107727%);stop-opacity:1;"/>
<stop offset="0.515625" style="stop-color:rgb(2.481079%,60.78186%,89.935303%);stop-opacity:1;"/>
<stop offset="0.523438" style="stop-color:rgb(2.566528%,60.545349%,89.762878%);stop-opacity:1;"/>
<stop offset="0.53125" style="stop-color:rgb(2.651978%,60.308838%,89.590454%);stop-opacity:1;"/>
<stop offset="0.539063" style="stop-color:rgb(2.738953%,60.072327%,89.419556%);stop-opacity:1;"/>
<stop offset="0.546875" style="stop-color:rgb(2.824402%,59.837341%,89.247131%);stop-opacity:1;"/>
<stop offset="0.554688" style="stop-color:rgb(2.911377%,59.60083%,89.074707%);stop-opacity:1;"/>
<stop offset="0.5625" style="stop-color:rgb(2.996826%,59.364319%,88.902283%);stop-opacity:1;"/>
<stop offset="0.570313" style="stop-color:rgb(3.082275%,59.129333%,88.731384%);stop-opacity:1;"/>
<stop offset="0.578125" style="stop-color:rgb(3.16925%,58.892822%,88.55896%);stop-opacity:1;"/>
<stop offset="0.585938" style="stop-color:rgb(3.2547%,58.656311%,88.386536%);stop-opacity:1;"/>
<stop offset="0.59375" style="stop-color:rgb(3.340149%,58.4198%,88.214111%);stop-opacity:1;"/>
<stop offset="0.601562" style="stop-color:rgb(3.427124%,58.184814%,88.043213%);stop-opacity:1;"/>
<stop offset="0.609375" style="stop-color:rgb(3.512573%,57.948303%,87.870789%);stop-opacity:1;"/>
<stop offset="0.617188" style="stop-color:rgb(3.599548%,57.711792%,87.698364%);stop-opacity:1;"/>
<stop offset="0.625" style="stop-color:rgb(3.684998%,57.476807%,87.52594%);stop-opacity:1;"/>
<stop offset="0.632813" style="stop-color:rgb(3.770447%,57.240295%,87.355042%);stop-opacity:1;"/>
<stop offset="0.640625" style="stop-color:rgb(3.857422%,57.003784%,87.182617%);stop-opacity:1;"/>
<stop offset="0.648438" style="stop-color:rgb(3.942871%,56.767273%,87.010193%);stop-opacity:1;"/>
<stop offset="0.65625" style="stop-color:rgb(4.029846%,56.532288%,86.837769%);stop-opacity:1;"/>
<stop offset="0.664063" style="stop-color:rgb(4.115295%,56.295776%,86.66687%);stop-opacity:1;"/>
<stop offset="0.671875" style="stop-color:rgb(4.200745%,56.059265%,86.494446%);stop-opacity:1;"/>
<stop offset="0.679688" style="stop-color:rgb(4.28772%,55.822754%,86.322021%);stop-opacity:1;"/>
<stop offset="0.6875" style="stop-color:rgb(4.373169%,55.587769%,86.149597%);stop-opacity:1;"/>
<stop offset="0.695312" style="stop-color:rgb(4.458618%,55.351257%,85.978699%);stop-opacity:1;"/>
<stop offset="0.703125" style="stop-color:rgb(4.545593%,55.114746%,85.806274%);stop-opacity:1;"/>
<stop offset="0.710938" style="stop-color:rgb(4.631042%,54.879761%,85.63385%);stop-opacity:1;"/>
<stop offset="0.71875" style="stop-color:rgb(4.718018%,54.64325%,85.461426%);stop-opacity:1;"/>
<stop offset="0.726562" style="stop-color:rgb(4.803467%,54.406738%,85.290527%);stop-opacity:1;"/>
<stop offset="0.734375" style="stop-color:rgb(4.888916%,54.170227%,85.118103%);stop-opacity:1;"/>
<stop offset="0.742188" style="stop-color:rgb(4.975891%,53.935242%,84.945679%);stop-opacity:1;"/>
<stop offset="0.75" style="stop-color:rgb(5.06134%,53.69873%,84.773254%);stop-opacity:1;"/>
<stop offset="0.757813" style="stop-color:rgb(5.14679%,53.462219%,84.602356%);stop-opacity:1;"/>
<stop offset="0.765625" style="stop-color:rgb(5.233765%,53.227234%,84.429932%);stop-opacity:1;"/>
<stop offset="0.773438" style="stop-color:rgb(5.319214%,52.990723%,84.257507%);stop-opacity:1;"/>
<stop offset="0.78125" style="stop-color:rgb(5.406189%,52.754211%,84.085083%);stop-opacity:1;"/>
<stop offset="0.789062" style="stop-color:rgb(5.491638%,52.5177%,83.914185%);stop-opacity:1;"/>
<stop offset="0.796875" style="stop-color:rgb(5.577087%,52.282715%,83.74176%);stop-opacity:1;"/>
<stop offset="0.804688" style="stop-color:rgb(5.664062%,52.046204%,83.569336%);stop-opacity:1;"/>
<stop offset="0.8125" style="stop-color:rgb(5.749512%,51.809692%,83.396912%);stop-opacity:1;"/>
<stop offset="0.820312" style="stop-color:rgb(5.834961%,51.573181%,83.226013%);stop-opacity:1;"/>
<stop offset="0.828125" style="stop-color:rgb(5.921936%,51.338196%,83.053589%);stop-opacity:1;"/>
<stop offset="0.835938" style="stop-color:rgb(6.007385%,51.101685%,82.881165%);stop-opacity:1;"/>
<stop offset="0.84375" style="stop-color:rgb(6.09436%,50.865173%,82.70874%);stop-opacity:1;"/>
<stop offset="0.851563" style="stop-color:rgb(6.17981%,50.630188%,82.536316%);stop-opacity:1;"/>
<stop offset="0.859375" style="stop-color:rgb(6.265259%,50.393677%,82.365417%);stop-opacity:1;"/>
<stop offset="0.867188" style="stop-color:rgb(6.352234%,50.157166%,82.192993%);stop-opacity:1;"/>
<stop offset="0.875" style="stop-color:rgb(6.437683%,49.920654%,82.020569%);stop-opacity:1;"/>
<stop offset="0.882812" style="stop-color:rgb(6.523132%,49.685669%,81.848145%);stop-opacity:1;"/>
<stop offset="0.890625" style="stop-color:rgb(6.610107%,49.449158%,81.677246%);stop-opacity:1;"/>
<stop offset="0.898438" style="stop-color:rgb(6.695557%,49.212646%,81.504822%);stop-opacity:1;"/>
<stop offset="0.90625" style="stop-color:rgb(6.782532%,48.977661%,81.332397%);stop-opacity:1;"/>
<stop offset="0.914062" style="stop-color:rgb(6.867981%,48.74115%,81.159973%);stop-opacity:1;"/>
<stop offset="0.921875" style="stop-color:rgb(6.95343%,48.504639%,80.989075%);stop-opacity:1;"/>
<stop offset="0.929688" style="stop-color:rgb(7.040405%,48.268127%,80.81665%);stop-opacity:1;"/>
<stop offset="0.9375" style="stop-color:rgb(7.125854%,48.033142%,80.644226%);stop-opacity:1;"/>
<stop offset="0.945313" style="stop-color:rgb(7.211304%,47.796631%,80.471802%);stop-opacity:1;"/>
<stop offset="0.953125" style="stop-color:rgb(7.298279%,47.56012%,80.300903%);stop-opacity:1;"/>
<stop offset="0.960938" style="stop-color:rgb(7.383728%,47.325134%,80.128479%);stop-opacity:1;"/>
<stop offset="0.96875" style="stop-color:rgb(7.470703%,47.088623%,79.956055%);stop-opacity:1;"/>
<stop offset="0.976562" style="stop-color:rgb(7.556152%,46.852112%,79.78363%);stop-opacity:1;"/>
<stop offset="0.984375" style="stop-color:rgb(7.641602%,46.615601%,79.612732%);stop-opacity:1;"/>
<stop offset="0.992188" style="stop-color:rgb(7.728577%,46.380615%,79.440308%);stop-opacity:1;"/>
<stop offset="1" style="stop-color:rgb(7.814026%,46.144104%,79.267883%);stop-opacity:1;"/>
</linearGradient>
<clipPath id="clip9">
  <path d="M 177 127 L 198 127 L 198 148 L 177 148 Z M 177 127 "/>
</clipPath>
<clipPath id="clip10">
  <path d="M 187.273438 147.226562 C 187.9375 147.226562 188.59375 147.164062 189.242188 147.035156 C 189.894531 146.902344 190.527344 146.714844 191.140625 146.460938 C 191.75 146.207031 192.332031 145.894531 192.886719 145.527344 C 193.4375 145.160156 193.945312 144.742188 194.417969 144.273438 C 194.886719 143.808594 195.304688 143.296875 195.671875 142.746094 C 196.042969 142.195312 196.351562 141.617188 196.605469 141.003906 C 196.859375 140.394531 197.050781 139.761719 197.179688 139.113281 C 197.308594 138.464844 197.375 137.808594 197.375 137.148438 C 197.375 136.484375 197.308594 135.828125 197.179688 135.179688 C 197.050781 134.53125 196.859375 133.902344 196.605469 133.289062 C 196.351562 132.679688 196.042969 132.097656 195.671875 131.546875 C 195.304688 130.996094 194.886719 130.488281 194.417969 130.019531 C 193.945312 129.550781 193.4375 129.132812 192.886719 128.765625 C 192.332031 128.398438 191.75 128.085938 191.140625 127.835938 C 190.527344 127.582031 189.894531 127.390625 189.242188 127.261719 C 188.59375 127.132812 187.9375 127.066406 187.273438 127.066406 C 186.609375 127.066406 185.953125 127.132812 185.300781 127.261719 C 184.652344 127.390625 184.019531 127.582031 183.40625 127.835938 C 182.792969 128.085938 182.210938 128.398438 181.660156 128.765625 C 181.109375 129.132812 180.597656 129.550781 180.128906 130.019531 C 179.660156 130.488281 179.242188 130.996094 178.871094 131.546875 C 178.503906 132.097656 178.191406 132.679688 177.9375 133.289062 C 177.683594 133.902344 177.492188 134.53125 177.363281 135.179688 C 177.234375 135.828125 177.171875 136.484375 177.171875 137.148438 C 177.164062 137.808594 177.226562 138.46875 177.351562 139.117188 C 177.476562 139.769531 177.667969 140.402344 177.917969 141.015625 C 178.171875 141.628906 178.480469 142.210938 178.847656 142.765625 C 179.21875 143.316406 179.636719 143.828125 180.105469 144.296875 C 180.578125 144.765625 181.089844 145.183594 181.640625 145.550781 C 182.195312 145.917969 182.78125 146.226562 183.394531 146.480469 C 184.011719 146.730469 184.644531 146.921875 185.296875 147.046875 C 185.949219 147.171875 186.609375 147.230469 187.273438 147.226562 Z M 187.273438 147.226562 "/>
</clipPath>
<linearGradient id="linear5" gradientUnits="userSpaceOnUse" x1="24" y1="18.880663" x2="24" y2="16.179996" gradientTransform="matrix(7.483353,0,0,7.466665,7.672226,6.25641)">
<stop offset="0" style="stop-color:rgb(10.96344%,17.532349%,36.816406%);stop-opacity:1;"/>
<stop offset="0.0625" style="stop-color:rgb(10.870361%,17.478943%,36.647034%);stop-opacity:1;"/>
<stop offset="0.125" style="stop-color:rgb(10.684204%,17.375183%,36.309814%);stop-opacity:1;"/>
<stop offset="0.1875" style="stop-color:rgb(10.496521%,17.269897%,35.971069%);stop-opacity:1;"/>
<stop offset="0.25" style="stop-color:rgb(10.310364%,17.164612%,35.63385%);stop-opacity:1;"/>
<stop offset="0.3125" style="stop-color:rgb(10.124207%,17.059326%,35.295105%);stop-opacity:1;"/>
<stop offset="0.375" style="stop-color:rgb(9.938049%,16.954041%,34.957886%);stop-opacity:1;"/>
<stop offset="0.4375" style="stop-color:rgb(9.751892%,16.848755%,34.620667%);stop-opacity:1;"/>
<stop offset="0.5" style="stop-color:rgb(9.564209%,16.743469%,34.281921%);stop-opacity:1;"/>
<stop offset="0.5625" style="stop-color:rgb(9.378052%,16.638184%,33.944702%);stop-opacity:1;"/>
<stop offset="0.625" style="stop-color:rgb(9.191895%,16.532898%,33.605957%);stop-opacity:1;"/>
<stop offset="0.6875" style="stop-color:rgb(9.005737%,16.427612%,33.268738%);stop-opacity:1;"/>
<stop offset="0.75" style="stop-color:rgb(8.81958%,16.322327%,32.929993%);stop-opacity:1;"/>
<stop offset="0.8125" style="stop-color:rgb(8.631897%,16.217041%,32.592773%);stop-opacity:1;"/>
<stop offset="0.875" style="stop-color:rgb(8.44574%,16.111755%,32.254028%);stop-opacity:1;"/>
<stop offset="0.9375" style="stop-color:rgb(8.259583%,16.00647%,31.916809%);stop-opacity:1;"/>
<stop offset="1" style="stop-color:rgb(8.073425%,15.901184%,31.57959%);stop-opacity:1;"/>
</linearGradient>
</defs>
<g id="surface1">
<g clip-path="url(#clip1)" clip-rule="nonzero">
<g clip-path="url(#clip2)" clip-rule="nonzero">
<path style=" stroke:none;fill-rule:nonzero;fill:url(#linear0);" d="M 53.320312 28.667969 L 53.320312 342.160156 L 321.523438 342.160156 L 321.523438 28.667969 Z M 53.320312 28.667969 "/>
</g>
</g>
<g clip-path="url(#clip3)" clip-rule="nonzero">
<g clip-path="url(#clip4)" clip-rule="nonzero">
<path style=" stroke:none;fill-rule:nonzero;fill:url(#linear1);" d="M 59.457031 28.695312 L 59.457031 342.855469 L 321.542969 342.855469 L 321.542969 28.695312 Z M 59.457031 28.695312 "/>
</g>
</g>
<g clip-path="url(#clip5)" clip-rule="nonzero">
<g clip-path="url(#clip6)" clip-rule="nonzero">
<path style=" stroke:none;fill-rule:nonzero;fill:url(#linear2);" d="M 140.382812 106.902344 L 140.382812 293.792969 L 233.9375 293.792969 L 233.9375 106.902344 Z M 140.382812 106.902344 "/>
</g>
</g>
<g clip-path="url(#clip7)" clip-rule="nonzero">
<g clip-path="url(#clip8)" clip-rule="nonzero">
<path style=" stroke:none;fill-rule:nonzero;fill:url(#linear3);" d="M 187.273438 107.054688 L 234.105469 107.054688 L 234.105469 293.722656 L 187.273438 293.722656 Z M 187.273438 107.054688 "/>
<path style=" stroke:none;fill-rule:nonzero;fill:url(#linear4);" d="M 187.273438 107.054688 L 187.273438 293.722656 L 234.105469 293.722656 L 234.105469 107.054688 Z M 187.273438 107.054688 "/>
</g>
</g>
<g clip-path="url(#clip9)" clip-rule="nonzero">
<g clip-path="url(#clip10)" clip-rule="nonzero">
<path style=" stroke:none;fill-rule:nonzero;fill:url(#linear5);" d="M 177.164062 127.066406 L 177.164062 147.230469 L 197.375 147.230469 L 197.375 127.066406 Z M 177.164062 127.066406 "/>
</g>
</g>
</g>
</svg>
